# Blender v3.2.1 OBJ File: ''
# www.blender.org
mtllib carTrash.mtl
o Cube
v 0.942465 0.380456 1.628002
v 1.000000 -1.000000 2.242924
v 0.847853 0.960958 -1.987542
v 1.000000 -1.000000 -2.242924
v -0.883089 0.380456 1.628002
v -1.000000 -1.000000 2.242924
v -0.841415 0.960958 -1.987542
v -1.000000 -1.000000 -2.242924
v -1.000000 -1.000000 0.000000
v 0.000000 -1.000000 2.242924
v 1.000000 0.000000 2.242924
v -1.000000 0.000000 -2.242924
v 1.000000 0.000000 -2.242924
v -1.000000 0.000000 2.242924
v 0.000000 1.019040 -2.242924
v 0.834451 0.960958 -0.093502
v 0.000000 -1.000000 -2.242924
v -0.841415 0.960958 -0.093092
v 0.003663 0.399496 1.628002
v 1.000000 -1.000000 0.000000
v 0.000000 0.000000 2.242924
v 1.000000 0.000000 0.000000
v 0.000000 -1.000000 0.000000
v -1.000000 0.000000 0.000000
v -1.000000 -0.751892 -1.682193
v 0.000000 1.019040 0.000000
v -0.844859 0.656175 0.721793
v 1.000000 -1.000000 1.121462
v -1.000000 -1.000000 1.121462
v 0.900347 0.656175 0.721793
v 1.000000 0.000000 1.121462
v 0.000000 -1.000000 1.121462
v -1.000000 0.000000 1.121462
v 0.006213 0.658193 0.964779
v -1.000000 -1.000000 -1.121462
v 0.847853 0.960958 -1.040317
v -0.841415 0.960958 -1.040317
v 1.000000 -1.000000 -1.121462
v 1.000000 0.000000 -1.121462
v 0.000000 -1.000000 -1.121462
v -1.000000 0.000000 -1.121462
v 0.000000 1.019040 -1.121462
v -0.775711 -0.235316 -3.233135
v -0.651973 0.572761 -2.823907
v 0.775711 -0.235316 -3.233135
v 0.775711 -1.011027 -3.233135
v 0.003219 0.591801 -2.823907
v 0.000000 -1.011027 -3.233135
v -0.775711 -1.011027 -3.233135
v 0.658411 0.572761 -2.823907
v 0.000000 -0.235316 -3.233135
v 0.847853 0.960958 -1.513929
v 1.000000 0.000000 -1.682193
v 0.000000 -0.751892 -1.682193
v 0.000000 1.019040 -1.682193
v -0.841415 0.960958 -1.513929
v 1.000000 -0.751892 -1.682193
v -1.000000 0.000000 -1.682193
v -1.000000 -0.762280 0.560731
v 0.829978 0.808567 0.314761
v 1.000000 0.000000 0.560731
v 0.000000 -0.762280 0.560731
v 0.031075 0.838617 0.482389
v -0.815168 0.808567 0.314351
v 1.000000 -0.762280 0.560731
v -1.000000 0.000000 0.560731
vt 0.873973 0.127912
vt 0.873971 0.059088
vt 0.767929 0.092095
vt 0.767930 0.150226
vt 0.980825 0.092095
vt 0.956941 0.000545
vt 0.874369 0.000000
vt 0.625409 0.549833
vt 0.625409 0.691100
vt 0.674635 0.613338
vt 0.709696 0.499149
vt 0.126029 0.198173
vt 0.126029 0.123324
vt 0.000000 0.123324
vt 0.000000 0.198173
vt 0.374539 0.196806
vt 0.374539 0.126188
vt 0.252207 0.158037
vt 0.252207 0.217684
vt 0.873971 0.638828
vt 1.000000 0.638828
vt 0.992752 0.552470
vt 0.874437 0.551925
vt 0.873971 0.764857
vt 0.873971 0.638828
vt 0.747943 0.638828
vt 0.747943 0.764857
vt 0.873971 0.890885
vt 0.747943 0.890885
vt 0.747943 0.638828
vt 0.762680 0.552470
vt 0.468925 0.196491
vt 0.500071 0.125768
vt 0.470229 0.478960
vt 0.500071 0.408242
vt 0.374539 0.408661
vt 0.374539 0.479280
vt 0.252057 0.396509
vt 0.271137 0.447840
vt 0.252057 0.198173
vt 0.252057 0.123324
vt 0.252057 0.476782
vt 0.252057 0.402149
vt 0.126029 0.402149
vt 0.126029 0.476782
vt 0.000000 0.402149
vt 0.000000 0.476782
vt 0.500071 0.549420
vt 0.500071 0.690687
vt 0.500071 0.266886
vt 0.500071 0.408153
vt 0.625409 0.408566
vt 0.625409 0.267299
vt 0.747943 0.396613
vt 0.747943 0.277295
vt 0.223790 0.000000
vt 0.126029 0.000000
vt 0.498947 0.000000
vt 0.401571 0.000325
vt 0.625409 0.126033
vt 0.598869 0.000320
vt 0.501643 0.000000
vt 0.500071 0.125620
vt 0.980826 0.150226
vt 0.978577 0.379037
vt 0.979142 0.324568
vt 0.873978 0.334383
vt 0.877894 0.398752
vt 0.767935 0.324619
vt 0.771242 0.378987
vt 0.874759 0.463121
vt 0.767499 0.433355
vt 0.987445 0.433355
vt 0.529866 0.478885
vt 0.625409 0.479200
vt 0.126029 0.680973
vt 0.126029 0.541561
vt 0.000000 0.541561
vt 0.000000 0.680973
vt 0.252057 0.680973
vt 0.252057 0.541561
vt 0.374539 0.691135
vt 0.374539 0.549898
vt 0.291054 0.499370
vt 0.326136 0.613580
vt 0.500071 0.690715
vt 0.500071 0.549479
vt 0.729188 0.447772
vt 0.980828 0.208357
vt 0.873975 0.196736
vt 0.625409 0.196666
vt 0.747943 0.217635
vt 0.531168 0.196356
vt 0.252057 0.262737
vt 0.126029 0.262737
vt 0.500071 0.267005
vt 0.374539 0.267424
vt 0.252207 0.277330
vt 0.000000 0.262737
vt 0.767932 0.208357
vt 0.097762 0.794285
vt 0.195524 0.794285
vt 0.179929 0.683308
vt 0.097356 0.680973
vt 0.097762 0.889422
vt 0.195524 0.889422
vt 0.000000 0.889422
vt 0.000000 0.794285
vt 0.014783 0.683308
vt 0.298820 0.051650
vt 0.747943 0.157976
vt 0.701782 0.051717
vt 0.028267 0.000000
vt 0.791796 0.000545
vn -0.0003 1.0000 0.0000
vn -0.0005 0.9517 -0.3069
vn -0.6468 0.7392 -0.1878
vn -0.6729 0.7398 0.0000
vn 0.6490 0.7373 -0.1879
vn 0.4988 0.5851 -0.6394
vn 0.0000 0.6829 -0.7305
vn -0.9915 0.1296 0.0073
vn -0.6208 0.3916 0.6791
vn -0.5832 0.7543 0.3015
vn -0.6601 0.7217 0.2087
vn 0.0000 -1.0000 -0.0000
vn 0.0000 -0.9772 0.2122
vn 0.6936 -0.7162 0.0775
vn 0.8105 -0.5858 -0.0000
vn 0.9969 0.0784 0.0000
vn 0.9827 0.1157 -0.1448
vn 0.6751 0.7377 0.0000
vn -0.0001 0.4821 0.8761
vn 0.6171 0.3881 0.6845
vn 0.6383 0.7096 0.2984
vn -0.0008 0.9026 0.4306
vn 0.0000 -0.7071 0.7071
vn 0.5774 -0.5774 0.5774
vn -0.5774 -0.5774 0.5774
vn 0.8064 -0.5914 0.0000
vn 0.6649 -0.7320 0.1487
vn 0.9959 0.0898 0.0108
vn 0.9962 0.0874 -0.0066
vn 0.6420 0.7574 0.1195
vn 0.6620 0.7136 0.2294
vn -0.8105 -0.5858 -0.0000
vn -0.6936 -0.7162 0.0775
vn -0.8064 -0.5914 0.0000
vn -0.6649 -0.7320 0.1487
vn 0.0000 -0.9800 0.1991
vn -0.6649 -0.7320 -0.1487
vn -0.6634 -0.7321 -0.1547
vn -0.9956 0.0919 0.0155
vn -0.9967 0.0817 0.0000
vn -0.6472 0.7523 0.1230
vn -0.5037 -0.5937 -0.6275
vn 0.0000 -0.7110 -0.7032
vn 0.5037 -0.5937 -0.6275
vn 0.5843 0.1961 -0.7875
vn -0.9821 0.1194 -0.1454
vn -0.5846 0.1971 -0.7870
vn -0.0015 0.9819 0.1896
vn 0.0041 0.9374 0.3481
vn -0.6529 0.7160 0.2470
vn -0.0022 0.9435 0.3313
vn 0.7017 0.6884 0.1836
vn -0.9939 0.1094 0.0138
vn 0.0000 -0.9800 -0.1991
vn 0.6649 -0.7320 -0.1487
vn 0.9970 0.0770 -0.0077
vn 0.6754 0.7375 0.0023
vn -0.0001 1.0000 0.0001
vn 0.0000 -0.9784 -0.2068
vn 0.6634 -0.7321 -0.1547
vn 0.9968 0.0800 0.0015
vn -0.0000 0.2301 -0.9732
vn -0.4958 0.5872 -0.6398
usemtl None
s 1
f 55/1/1 15/2/2 7/3/3 56/4/4
f 3/5/5 50/6/6 47/7/7 15/2/2
f 33/8/8 14/9/9 5/10/10 27/11/11
f 54/12/12 17/13/13 4/14/14 57/15/15
f 53/16/16 13/17/17 3/18/5 52/19/18
f 21/20/19 11/21/20 1/22/21 19/23/22
f 10/24/23 2/25/24 11/26/20 21/27/19
f 6/28/25 10/24/23 21/27/19 14/29/9
f 14/30/9 21/20/19 19/23/22 5/31/10
f 57/32/15 4/33/14 13/17/17 53/16/16
f 65/34/26 20/35/27 22/36/28 61/37/29
f 61/37/29 22/36/28 16/38/30 60/39/31
f 25/40/32 8/41/33 17/13/13 54/12/12
f 59/42/34 9/43/35 23/44/36 62/45/12
f 62/45/12 23/44/36 20/46/27 65/47/26
f 29/48/37 6/49/25 14/9/9 33/8/8
f 35/50/38 9/51/35 24/52/39 41/53/40
f 41/53/40 24/52/39 18/54/41 37/55/4
f 8/41/33 49/56/42 48/57/43 17/13/13
f 4/33/14 46/58/44 45/59/45 13/17/17
f 12/60/46 43/61/47 49/62/42 8/63/33
f 52/64/18 3/5/5 15/2/2 55/1/1
f 60/65/31 16/66/30 26/67/48 63/68/49
f 63/68/49 26/67/48 18/69/41 64/70/50
f 19/23/22 34/71/51 27/72/11 5/31/10
f 1/22/21 30/73/52 34/71/51 19/23/22
f 59/74/34 29/48/37 33/8/8 66/75/53
f 10/76/23 32/77/54 28/78/55 2/79/24
f 6/80/25 29/81/37 32/77/54 10/76/23
f 11/82/20 31/83/56 30/84/52 1/85/21
f 2/86/24 28/87/55 31/83/56 11/82/20
f 66/75/53 33/8/8 27/11/11 64/88/50
f 16/66/30 36/89/57 42/90/58 26/67/48
f 58/91/40 41/53/40 37/55/4 56/92/4
f 25/93/32 35/50/38 41/53/40 58/91/40
f 9/43/35 35/94/38 40/95/59 23/44/36
f 20/35/27 38/96/60 39/97/61 22/36/28
f 22/36/28 39/97/61 36/98/57 16/38/30
f 23/44/36 40/95/59 38/99/60 20/46/27
f 26/67/48 42/90/58 37/100/4 18/69/41
f 51/101/62 43/102/47 44/103/63 47/104/7
f 48/105/43 49/106/42 43/102/47 51/101/62
f 46/107/44 48/105/43 51/101/62 45/108/45
f 45/108/45 51/101/62 47/104/7 50/109/6
f 13/17/17 45/59/45 50/110/6 3/18/5
f 7/111/3 44/112/63 43/61/47 12/60/46
f 17/13/13 48/57/43 46/113/44 4/14/14
f 15/2/2 47/7/7 44/114/63 7/3/3
f 8/63/33 25/93/32 58/91/40 12/60/46
f 12/60/46 58/91/40 56/92/4 7/111/3
f 36/89/57 52/64/18 55/1/1 42/90/58
f 35/94/38 25/40/32 54/12/12 40/95/59
f 38/96/60 57/32/15 53/16/16 39/97/61
f 39/97/61 53/16/16 52/19/18 36/98/57
f 40/95/59 54/12/12 57/15/15 38/99/60
f 42/90/58 55/1/1 56/4/4 37/100/4
f 24/52/39 66/75/53 64/88/50 18/54/41
f 9/51/35 59/74/34 66/75/53 24/52/39
f 34/71/51 63/68/49 64/70/50 27/72/11
f 30/73/52 60/65/31 63/68/49 34/71/51
f 32/77/54 62/45/12 65/47/26 28/78/55
f 29/81/37 59/42/34 62/45/12 32/77/54
f 31/83/56 61/37/29 60/39/31 30/84/52
f 28/87/55 65/34/26 61/37/29 31/83/56
